<?xml version="1.0" encoding="UTF-8"?><svg id="Layer_1" xmlns="http://www.w3.org/2000/svg" viewBox="0 0 1021 331.95"><defs><style>.cls-1{fill:#de5289;}.cls-1,.cls-2{stroke-width:0px;}.cls-2{fill:#de538a;}</style></defs><path class="cls-2" d="M0,155.74c17.03-12.21,34.39-23.85,53.16-33.34,39.91-20.19,82.1-33.48,125.9-41.94,51.22-9.9,102.96-13.49,155.07-12.4,38.16.8,76.11,4.22,114,8.75,71.59,8.56,142.08,23.19,212.66,37.42,40.16,8.09,80.56,14.73,121.65,15.03,42.25.3,83.29-5.98,121.73-24.78,3.09-1.51,3.79-2.32,1.47-5.39-15.15-20.1-26.25-42.41-35.25-65.8-2-5.2-3.49-10.54-3.66-16.25-.45-14.99,10.89-20.4,23.38-14.94,17.17,7.5,28.34,20.59,33.74,38.54.44,1.48.9,2.95,1.66,5.42,1.75-2.2,3.09-3.85,4.39-5.54,10.98-14.27,23.84-26.49,39.44-35.65,5.21-3.06,10.85-4.71,17.02-4.28,7.66.54,12.71,6.51,10.96,13.93-3.42,14.52-10.96,27.14-19.55,39.09-14.28,19.87-32.38,35.63-53.25,48.33-6.02,3.67-5.93,3.68-1.44,8.76,25.93,29.34,56.39,52.63,92.03,69.11,2.42,1.12,7.5,1.47,5.38,5.87-1.93,4-5.33.49-7.69-.51-38.28-16.23-70.26-40.87-96.65-72.81-2.57-3.11-4.47-3.12-7.84-1.4-30.32,15.46-62.66,23.46-96.54,25.99-46.32,3.46-91.88-2.54-137.16-11.02-55.82-10.45-111.33-22.57-167.41-31.66-37.45-6.07-75.03-11.27-112.89-14.26-32.12-2.54-64.27-4.32-96.49-3.76-68.23,1.2-135.25,10.15-200.09,32.35-32.74,11.21-63.91,25.61-92.11,45.91-1.67,1.2-3.3,2.62-5.62,2.28v-1.05ZM872.13,17.44c.11.63.25,2.38.73,4.04,8.06,27.9,22.02,52.71,39.59,75.67,1.94,2.53,3.37,1.31,5.23.24,26.75-15.46,48.52-35.96,63.82-62.94,3.35-5.91,6.39-12.05,8.92-18.35,2.5-6.21-.09-9.41-6.75-9.24-5.6.15-10.61,2.23-15.15,5.28-9.31,6.25-18.08,13.18-25.93,21.25-5.75,5.92-10.73,12.43-15.45,19.17-.89,1.27-1.73,2.86-3.65,2.42-1.94-.45-1.84-2.2-2.13-3.77-.57-3.08-1.12-6.2-2.06-9.18-5.24-16.67-16.13-28.44-32.12-35.21-8.71-3.69-15.08.67-15.06,10.61Z"/><path class="cls-1" d="M804.97,239.52c4.34-4.53,7.72-8.26,11.32-11.76,3.82-3.71,8.23-6.45,13.64-7.35,5.76-.96,10.45,1.99,11.77,7.69,1.72,7.41-.74,14.13-3.7,20.72-1.1,2.45-2.44,4.81-3.07,7.75,6.04-2.86,11.33-6.65,14.61-12.44,3.08-5.44,5.46-11.29,8.09-16.99,2.64-5.72,6.19-8.6,8.98-6.71,4.86,3.29,1.61,7.09,0,10.56-3.83,8.22-8.42,16.13-9.88,25.26-.35,2.19-1.28,4.75,1.22,6.17,2.27,1.29,4.37-.05,6.27-1.42,5.43-3.9,8.7-9.52,11.84-15.16,4.2-7.56,9.15-14.45,15.88-19.97,3.15-2.59,6.66-4.46,10.61-5.54,4.57-1.24,8.77-.78,11.98,2.99,3.11,3.66,2.68,7.85.81,11.84-4.25,9.07-11.95,14.37-20.83,18.17-2.55,1.09-5.33,1.67-8,2.47-2.69.8-5.05,2.04-4.72,5.32.29,3,1.79,5.2,5.01,5.97,4.85,1.16,9.45.03,13.79-1.82,11.77-5.02,19.76-14.16,26.07-24.91,4.07-6.93,7.82-14.04,11.78-21.02.94-1.66,2.07-3.25,3.31-4.69,1.41-1.65,3.18-2.94,5.51-1.91,2.44,1.07,4.39,3.01,3.63,5.7-2.11,7.42.07,14.55,1.06,21.73.77,5.56,1.19,11.1,1.04,16.7-.03,1.12-.66,2.63.81,3.26,1.29.56,2.29-.57,3.28-1.2,6.84-4.31,11.66-10.46,15.66-17.34.88-1.5,1.54-3.27,3.31-3.91,1.75-.64,3.42-.28,4.8,1.15,1.63,1.68,1.42,3.46.39,5.27-9.39,16.49-22.61,27.85-41.95,30.79-4.21.64-8.43-.04-12.27-1.94-2.32-1.14-4.05-3.01-2.92-5.9,1.06-2.71,3.47-2.6,5.79-2.21,10.34,1.74,14.09-1.43,13.7-11.98-.17-4.52-.75-9.04-1.33-13.53-.18-1.44,0-3.61-1.77-3.95-1.9-.37-2.39,1.78-2.95,3.12-2.52,6.02-6.15,11.39-10.06,16.52-8.77,11.52-19.74,19.75-34.63,21.47-9.81,1.13-14.96-1.56-20.1-10.31-3.52,2.36-6.68,5.33-11.14,6.05-7.22,1.16-12.04-1.53-13.71-8.61-.91-3.88-2.24-3.37-4.81-1.55-9.86,7.01-21.85,9.13-32.72,13.85-3.14,1.36-6.96.83-9.98-1.56-1.69-1.34-3.14-2.91-2.59-5.33.58-2.51,2.33-3.83,4.8-4.19,1.03-.15,2.13-.27,3.14-.09,9.16,1.64,14.46-3.6,18.73-10.51,3.49-5.65,6.77-11.45,7.71-18.18.26-1.85.89-4.18-.8-5.45-1.95-1.46-4.1-.1-5.83,1.03-10.29,6.72-18.07,15.92-24.99,25.86-2.98,4.29-5.41,8.97-8.02,13.51-1.14,1.98-1.98,4.25-4.79,4.21-2.44-.03-3.19-1.88-3.62-3.82-.4-1.83-1.42-1.56-2.71-1.07-6.93,2.62-12.35.94-15.89-5.73-1.46-2.75-2.87-1.77-4.34-.09-3.23,3.71-6.64,7.2-10.98,9.65-4.65,2.63-9.51,3.83-14.45,1.11-5-2.76-5.56-7.63-5.43-12.73.45-18.67,17.03-38.81,33.84-41.12,5.18-.71,10.29.9,15.63-.23,3.31-.7,4.52,2.9,3.4,5.99-1.43,3.93-3.34,7.68-5.01,11.52-2.52,5.79-4.67,11.73-4.73,18.12-.05,5.16,2.97,6.89,7.02,3.66,9.73-7.76,14.84-18.24,16.23-30.51.19-1.71-.34-3.61.95-4.97,6.3-6.65,8.76-15.41,12.89-23.24,3.84-7.28,7.86-14.41,13.1-20.8,2.49-3.03,5.4-5.52,9.11-6.86,6.63-2.39,12.24,1.44,12.09,8.46-.19,9.08-5.09,16.19-10.68,22.77-6.48,7.62-13.93,14.25-22.03,20.13-4.27,3.1-6.88,7.13-7.18,14.03ZM739.38,262.17c.07,1.14-.31,3.26,1.63,4.45,2.05,1.25,4.06.44,5.88-.72,1.16-.75,2.32-1.58,3.26-2.59,7.16-7.66,13.27-16.11,18.6-25.12,1.25-2.11,2.58-4.69.9-6.84-1.89-2.42-4.79-1.3-7.26-.52-11.24,3.57-22.53,18.65-23.01,31.33ZM814.52,213.24c10.6-5.8,22.78-23.97,21.1-30.96-6.16,3.37-17.67,20.06-21.1,30.96ZM890.37,245.86c3.86-.12,15.51-9.66,16.67-13.89.25-.92.37-1.78-.44-2.36-1.11-.79-2.35-.48-3.49,0-6.52,2.84-10.95,7.95-14.72,13.72-1.04,1.6-.48,2.66,1.98,2.51Z"/><path class="cls-2" d="M428.64,264.75c-2.36,1.74-4.31,3.52-6.55,4.79-5.98,3.38-12.4,2.3-16.27-3.2-2.4-3.41-3.95-3.04-6.34-.32-2.54,2.88-5.29,5.58-8.67,7.55-5.53,3.21-11.26,4.06-16.91.65-5.74-3.46-7.32-9.11-6.87-15.41.65-9.12,4.8-17.08,8.86-25.01,1.82-3.56,4.01-6.97,6.32-10.25,2.03-2.89,5.12-4.23,8.15-1.93,2.92,2.21,1.2,5.02-.34,7.46-5.14,8.16-9.76,16.58-12.31,25.93-1.03,3.79-2.88,8.68.9,11.19,4.44,2.94,8.72-.33,12.02-3.64,5.75-5.76,9.68-12.79,13.33-19.97,2.06-4.05,3.91-8.21,6.03-12.22,1.45-2.74,3.84-4.36,6.94-2.96,3.13,1.42,2.62,4.24,1.62,6.8-2.23,5.7-4.25,11.47-5.14,17.55-.5,3.35-2.22,7.7,1.61,9.49,3.91,1.83,6.13-2.45,8.3-4.94,6.77-7.77,10.31-17.36,14.45-26.59,1.21-2.69,2.1-5.61,4.34-7.71,1.88-1.77,4.01-3.03,6.54-1.22,2.25,1.61,2.21,3.86,1.19,6.1-2.76,6.03-5.68,12-8.39,18.05-1.93,4.32-3.4,8.82-3.53,13.6-.11,4.1,1.92,5.38,5.66,3.58,4.25-2.05,6.84-5.84,9.59-9.49,6.22-8.25,9.68-18.21,16.34-26.2,2.96-3.55,6.31-6.54,10.37-8.7,7.16-3.8,15.18-3.18,20.08,1.45,4.67,4.42,5.82,13.01,2.8,20.06-2.94,6.87-8.42,11.47-14.01,16-4.04,3.27-4.33,6.42-1.14,10.53,1.72,2.21,3.4,1.1,5.05.14,9.51-5.52,17.8-12.38,23.46-21.97,4.71-7.97,10.66-14.68,18.85-19.22,5.03-2.79,10.32-4.14,16.12-3.15,2.4.41,4.81.43,7.29-.13,4.43-1,6.74,1.38,5.48,5.84-.85,2.99-2.4,5.8-3.72,8.64-2.96,6.37-5.57,12.84-5.85,19.97-.08,2.05-.45,4.47,1.8,5.63,2.39,1.24,4.42-.29,6.19-1.69,5.19-4.14,8.13-9.96,11.33-15.57,1.12-1.96,2.12-4.06,3.57-5.75,1.28-1.49,3.21-2.16,5.23-1.13,2.19,1.12,2.32,3.25,1.53,4.99-4.77,10.56-9.84,21-20.38,27.21-6.51,3.84-12.61,2.45-16.68-4.01-2.13-3.38-3.62-3.09-5.69-.33-1.9,2.54-4.24,4.63-6.75,6.55-11.31,8.68-19.42,6.44-24.26-7-6.47,5.22-13.39,9.57-20.71,13.31-2.48,1.26-3.67,3.54-4.77,6.01-6.39,14.26-13.69,27.95-25.59,38.58-4.19,3.75-8.59,7.19-14.22,8.57-5.79,1.42-11.16.84-15.5-3.7-4.24-4.43-4.25-9.75-2.75-15.21,1.87-6.8,6.98-11.2,12.18-15.35,10.61-8.46,22.86-14.13,35.05-19.86,2.97-1.4,4.9-3.2,4.42-6.81-.41-3.1-1.87-4.53-4.96-3.36-2.86,1.09-5.66,1.64-7.34-1.5-2-3.73,1.31-5.28,3.6-7.03,5.28-4.03,10.69-7.89,15.94-11.97,4.37-3.4,7.73-7.61,9.11-13.11.72-2.85.54-5.68-1.72-7.79-2.26-2.12-5.05-1.24-7.46-.36-4.77,1.74-8.33,5.15-10.96,9.39-4.87,7.86-9.45,15.91-14.38,23.73-2.8,4.45-6.3,8.38-10.81,11.28-8.1,5.21-15.39,3.6-20.65-4.88ZM519.98,261.57c-.04,2.12-.15,4.34,2.13,5.47,1.96.96,3.75-.06,5.37-1.07,1.17-.73,2.29-1.62,3.25-2.62,7.26-7.61,13.29-16.15,18.71-25.12,1.28-2.12,2.43-4.78.8-6.88-1.89-2.42-4.81-1.25-7.27-.47-11.02,3.48-22.63,19.05-22.99,30.71ZM440.8,323.17c1.19-.42,3.17-.76,4.76-1.74,11.95-7.4,20.16-18.08,26.36-30.45.44-.88,1.09-2.05-.08-2.8-1.01-.64-2,.19-2.91.66-9.46,4.93-18.65,10.3-27.07,16.87-3.08,2.4-5.54,5.39-6.75,9.15-1.45,4.53.98,8.41,5.69,8.31Z"/><path class="cls-1" d="M668.33,285.5c-6.55-.28-14.59-.79-22.17-3.91-6.69-2.76-12.14-6.88-14.8-13.95-.69-1.84-1-3.71-.83-5.65.21-2.34,1.44-3.98,3.75-4.47,2.2-.47,3.98.71,4.59,2.66,4.1,13.1,15.27,14.14,26.16,14.98,13.68,1.05,26.95-.42,38.3-9.37,7.9-6.23,10.93-15.23,7.61-23.06-3.64-8.56-13.63-13.61-23.03-13.04-9.36.57-15.65,3.51-18.16,13.43-1.52,6.01-4.64,11.65-6.24,17.76-.86,3.26-2.09,7.06-6.48,5.87-4.59-1.24-3.86-5.34-2.92-8.74,2.04-7.42,4.71-14.63,8.09-21.56,1.42-2.92,1.85-5.15-2.13-6.37-2.09-.64-3.44-2.39-3.26-4.84.2-2.79,2.28-4.33,4.5-4.36,8.08-.1,11.22-5.77,14.52-11.68,3.31-5.94,6.73-11.87,11.66-16.71,2.32-2.28,4.84-4.76,8.07-1.85,2.9,2.6,1.15,5.35-.62,7.91-3.68,5.31-7.24,10.71-10.94,16.01-2.19,3.13-1.58,4.99,2.32,4.91,12.37-.26,23.5-3.83,31.95-13.32,5.46-6.14,4.02-14.35-2.94-18.98-6.83-4.55-14.66-6-22.53-5.91-17.69.2-34.33,4.25-48.44,15.72-3.84,3.12-7.14,6.7-8.79,11.51-2.3,6.69-.7,10.92,5.41,14.51,2.47,1.45,6.26,2.63,4.38,6.44-1.76,3.58-5.38,3.3-8.77,2.06-10.71-3.93-15.39-17.87-9.7-29.23,4.31-8.61,11.41-14.52,19.63-19.11,18.34-10.25,37.95-13.9,58.74-10.43,7.18,1.2,13.79,3.92,19.15,9.08,10.12,9.73,9.81,23.4-.72,32.64-3.98,3.49-8.39,6.29-13.19,8.49-2.39,1.1-2.75,2-.53,3.98,18.1,16.18,15.78,37.73-5.33,50.34-9.02,5.39-20.97,8.22-36.31,8.24Z"/><path class="cls-1" d="M310.04,284.92c-3.77.18-9.82-.32-15.41-3.34-6.35-3.42-9.5-9.07-8.84-15.88.69-7.03,5.98-13.89,12.07-15.83,2.38-.76,4.63-.89,6.11,1.34,1.53,2.29.33,4.34-1.33,6.09-.72.76-1.54,1.43-2.37,2.06-2.97,2.26-5,5.02-4.12,8.95.88,3.92,4.31,4.95,7.56,5.53,12.16,2.16,23.68.27,34.26-6.28,1.46-.91,2.78-2.15,3.94-3.43,4.67-5.17,3.74-10.08-2.71-12.9-7.04-3.07-14.27-5.69-21.38-8.62-2.9-1.2-5.76-2.55-8.52-4.04-14.4-7.72-18.91-21.46-11.11-35.89,8.68-16.05,23.7-23.57,40.6-28.02,6.15-1.62,12.47-1.62,18.77-1.05,16.76,1.52,24.7,17.68,16.3,33.11-7.43,13.66-25.31,22.18-40.57,19.24-5.31-1.02-10.04-3.14-12.71-8.27-1.21-2.33-1.73-4.7.8-6.55,2.23-1.63,4.4-.96,6.15.81,7.14,7.23,15.36,5.81,23.35,2.4,8.63-3.69,14.74-10.08,16.28-19.74.9-5.66-1.76-9.09-7.74-10.54-9.63-2.35-18.78-.1-27.63,3.48-9.74,3.94-18.26,9.67-23.94,18.78-5.43,8.71-3.52,17.05,5.19,22.54,7.75,4.89,16.75,6.95,25.07,10.58,1.76.77,3.59,1.38,5.31,2.23,13.84,6.81,15.81,21.26,4.07,31.41-9.99,8.64-22.04,11.67-37.43,11.83Z"/><path class="cls-1" d="M94.89,258.5c.52,0,1.05-.01,1.57,0,13.6.19,13.86-.03,19.48-12.47,1.2-2.66.8-3.56-2.17-2.99-1.18.23-2.46.56-3.59.32-2.39-.5-4.1-1.81-4.19-4.6-.08-2.66,1.59-4.29,3.75-4.16,11.65.7,15.01-7.11,18.26-16.14,4.25-11.8,9.16-23.42,16.36-33.85,4.05-5.87,8.8-10.84,16.25-12.34,10.14-2.05,18.16,3.95,18.95,14.26.66,8.65-2.49,16.2-7.37,22.95-8.96,12.42-20.09,22.63-34.78,27.6-10.46,3.54-12.62,12.72-16.79,20.69-1.54,2.94,1.58,2.97,3.18,3.33,7.85,1.79,15.59,3.91,23.03,7.01,8.96,3.73,13.31,9.38,13.02,16.47-.12,3.03-.85,5.7-4.29,6.26-3.47.57-4.57-2.07-5.18-4.7-.96-4.15-3.7-6.63-7.3-8.36-8.09-3.88-16.65-6.2-25.44-7.85-4.76-.89-8,1.43-11.19,4.33-6.5,5.91-14.2,8.74-22.98,8.49-6.34-.18-10.57-3.27-11.8-8.45-1.06-4.48,1.62-9.86,6.46-12.69,5.2-3.04,10.95-3.32,16.77-3.13ZM164.87,181.81c-5.31.14-8.44,3.14-11,6.79-7.54,10.77-12.48,22.87-17.56,34.89-.45,1.06-1.37,2.42.03,3.25,1.14.67,2.36-.32,3.39-.9,10.96-6.23,20.08-14.39,26.41-25.42,2.02-3.51,3.59-7.25,3.78-11.28.18-3.68-.79-7.02-5.07-7.33ZM94.37,266.94c-4-.29-7.1.07-10.06,1.18-1.47.55-3.12,1.33-2.93,3.18.21,2.07,2.13,1.96,3.65,2.05,3.15.19,6.26-.14,9.2-1.3,2.31-.91,6.28-1.23,5.81-4.01-.39-2.34-4.26-.72-5.68-1.1Z"/><path class="cls-1" d="M170.65,264.04c-.24-16.57,12.8-35.29,28.38-41.37,7.18-2.8,14.5-.06,21.76-1.33,2.98-.52,3.6,3.46,2.73,6.11-1.02,3.13-2.6,6.09-3.98,9.1-2.94,6.38-5.46,12.87-5.55,20.02-.02,1.89-.23,4.09,1.88,5.08,1.96.92,3.77-.12,5.35-1.26,5.56-4.04,8.69-9.94,11.88-15.77,1.17-2.14,1.98-4.53,3.89-6.17,1.53-1.31,3.32-2.04,5.3-.95,1.93,1.07,2.02,3.11,1.36,4.62-4.89,11.08-10.11,22.07-21.6,28-6.18,3.19-11.66,1.63-15.33-4.38-2.2-3.6-3.8-3.36-6.03-.38-3.1,4.14-7.08,7.31-11.61,9.65-9.75,5.02-18.27-.13-18.43-10.97ZM179.63,261.62c-.01,1.93-.23,4.05,1.8,5.11,2.06,1.07,4.11.38,5.91-.88,1.28-.9,2.64-1.79,3.67-2.95,6.84-7.73,13.06-15.93,18.18-24.9,1.17-2.05,2.77-4.5.8-6.78-1.89-2.19-4.6-1.21-6.87-.56-11.21,3.24-23.24,19.2-23.48,30.95Z"/><path class="cls-2" d="M449.27,201.31c.14-5.4,4.05-10.14,7.98-9.83,3.68.28,5.08,2.65,4.97,6.1-.15,4.71-4.32,9.66-8.09,9.52-3.98-.15-4.66-3-4.86-5.79Z"/><path class="cls-2" d="M881.08,197.12c-.03,4.74-4.13,9.88-7.87,9.97-3.99.09-5.01-2.62-5.16-5.83-.23-4.67,3.85-9.88,7.64-9.81,3.72.07,5.02,2.59,5.39,5.67Z"/></svg>