<?xml version="1.0" encoding="UTF-8"?><svg id="Layer_1" xmlns="http://www.w3.org/2000/svg" viewBox="0 0 806 437.72"><defs><style>.cls-1{fill:#de5087;}.cls-1,.cls-2{stroke-width:0px;}.cls-2{fill:#de548b;}</style></defs><path class="cls-1" d="M805.81,0c.06,1.83.16,3.66.16,5.49,0,130.06.01,260.11,0,390.17,0,7.58.9,6.72-6.58,6.73-26.52.04-53.04-.06-79.56.1-3.79.02-4.96-1.05-4.75-4.78.18-3.29.04-5.52,4.67-5.48,23.68.25,47.37.01,71.05.21,4.13.03,5.29-1.04,5.28-5.23-.11-124.05-.11-248.11,0-372.16,0-4.21-1.16-5.21-5.28-5.21-258.54.1-517.08.1-775.62,0-4.26,0-5.16,1.21-5.15,5.28.11,124.05.11,248.11-.01,372.16,0,4.24,1.22,5.2,5.3,5.17,23.52-.2,47.04,0,70.55-.19,4.11-.03,5.29,1.01,5.37,5.21.09,4.55-1.72,5.03-5.54,5.01-26.69-.14-53.38-.21-80.06.05C.89,402.57,0,401.07,0,396.67.11,264.45.1,132.22.1,0c268.57,0,537.14,0,805.71,0Z"/><path class="cls-1" d="M339.05,260.18c-8.49.19-17.57-.85-26.21-4.32-9.83-3.94-16.61-10.8-19.99-20.98-.85-2.58-.28-3.75,2.36-4.08,1.32-.16,2.68-.32,3.91-.78,5.15-1.91,8.32-.91,10.44,4.82,2.05,5.52,7.03,8.77,12.64,10.6,11.59,3.77,23.28,3.76,34.95.43,4.21-1.2,8.03-3.31,10.77-6.91,6.62-8.71,3.48-20.85-6.72-25.5-8.71-3.98-18.22-5.22-27.42-7.52-7.12-1.78-14.24-3.55-20.81-6.91-11.28-5.78-16.67-14.93-15.61-27.67,1-12.01,7.83-19.64,18.79-23.5,15.75-5.55,31.79-5.31,47.67-.53,9.63,2.9,15.44,10,19.01,19.18,1.11,2.86.17,4.05-2.66,4.29-1,.09-2.02.12-2.97.4-5.12,1.54-9.14,2.02-11.38-4.79-1.51-4.6-6.23-7.24-11.07-8.65-10.18-2.96-20.42-2.95-30.53.13-7.56,2.3-11.59,7.44-11.98,14.32-.43,7.54,3.58,12.2,10.03,15.15,7.8,3.57,16.25,4.9,24.5,6.88,7.94,1.91,15.89,3.76,23.31,7.35,10.19,4.93,15.96,12.68,16.37,24.24.44,12.33-4.46,21.63-15.24,27.7-9.76,5.5-20.46,6.73-32.18,6.64Z"/><path class="cls-2" d="M406.73,185.6c0-12.01.08-24.01-.06-36.01-.03-2.98.82-4.03,3.93-4.12,11.68-.33,11.68-.44,11.68,11.33,0,18.84,0,37.68,0,56.52,0,2.5-.05,5.02.21,7.5,1.99,19.04,12.51,27.42,33.36,26.68,17.27-.62,28.54-11.85,28.77-29.45.29-22.34.22-44.69,0-67.03-.04-4.43,1.13-5.7,5.56-5.58,10.06.27,10.06.04,10.06,9.98,0,19.84.06,39.68-.02,59.53-.1,27.42-16.52,44.3-43.92,45.22-5.67.19-11.31,0-16.92-1.17-19.41-4.07-32.15-19.06-32.57-38.88-.24-11.5-.04-23.01-.04-34.51-.01,0-.02,0-.04,0Z"/><path class="cls-1" d="M229.76,258.77c-5.54,1.75-7.97-1.7-9.77-7.22-2.48-7.58-5.86-14.86-8.58-22.36-.97-2.69-2.4-3.47-5.13-3.45-14.66.11-29.33.14-43.99-.02-3.09-.03-4.31,1.18-5.32,3.9-3.07,8.26-6.67,16.32-9.59,24.63-1.3,3.69-3.23,4.66-6.92,4.6-10.9-.18-10.91-.04-6.71-10.33,13.32-32.65,26.71-65.27,39.88-97.98,1.55-3.85,3.52-5.18,7.66-5.09,11.9.26,11.91.07,16.38,11.21,12.94,32.26,25.87,64.52,38.8,96.79q2.12,5.3-3.37,5.32c-.83,0-1.67,0-3.34,0ZM184.26,159.24c-6.32,17.47-13.38,34.44-20.02,51.57-1.07,2.76.03,3.03,2.34,3.02,11.81-.06,23.61-.05,35.42,0,2.28,0,3.41-.22,2.34-3.04-6.55-17.18-13.73-34.11-20.08-51.55Z"/><path class="cls-1" d="M713.79,145.56c10.72.22,7.91-1.55,11.87,8.21,13.5,33.3,26.78,66.69,40.33,99.97,1.68,4.14,1.38,5.26-3.37,5.13-10.35-.28-10.36-.05-14.2-9.83-2.61-6.66-5.27-13.3-7.75-20.01-.87-2.35-2.11-3.32-4.73-3.3-14.84.12-29.67.12-44.51,0-2.77-.02-4.13.88-5.11,3.52-3.18,8.58-6.79,17-9.95,25.59-1.1,2.98-2.6,4.02-5.8,4-11.87-.04-11.9.07-7.52-10.64,12.89-31.57,25.8-63.14,38.7-94.7q3.25-7.96,12.04-7.95ZM713.33,158.04c-5.87,18.14-13.05,35.1-19.67,52.27-.99,2.56-.86,3.57,2.21,3.54,11.68-.1,23.35-.08,35.03-.02,2.85.02,3.53-.97,2.47-3.61-2.66-6.64-5.22-13.33-7.78-20.01-4.03-10.51-8.02-21.04-12.26-32.17Z"/><path class="cls-1" d="M581.47,246.1c4.09,0,7.36,0,10.62,0,18.84,0,37.67.09,56.51-.07,3.75-.03,5.75.73,5.07,4.9-.21,1.3-.18,2.68,0,3.99.43,3.19-1.06,3.91-4,3.9-27.34-.08-54.67-.1-82.01.02-3.37.01-4.03-1.17-4.17-4.33-.22-5.1,1.22-9.09,4.42-13.17,20.76-26.48,41.26-53.17,61.84-79.8.6-.77,1.13-1.6,1.72-2.43-1.45-1.66-3.23-.9-4.74-.91-17.34-.06-34.67-.17-52,.05-4.13.05-5.52-1.04-5.31-5.26.42-8.3-.91-7.11,7.23-7.14,22.67-.06,45.34.09,68.01-.12,4.25-.04,5.31,1.22,5.23,5.31-.07,4.03-1.01,7.23-3.53,10.47-20.77,26.69-41.37,53.52-62.01,80.31-.87,1.13-1.6,2.37-2.88,4.28Z"/><path class="cls-2" d="M51.4,202c0-17.34.09-34.68-.08-52.02-.03-3.55,1.12-4.51,4.56-4.53,11.16-.06,11.16-.18,11.16,10.83,0,28.01.09,56.02-.09,84.03-.03,4.38.84,6.01,5.67,5.9,15.5-.34,31.02,0,46.53-.21,3.87-.05,5.65.9,5.01,4.98-.21,1.3-.18,2.68,0,3.99.44,3.23-1.11,3.89-4.02,3.87-21.52-.09-43.03-.11-64.55,0-3.29.02-4.27-1.08-4.25-4.33.14-17.51.06-35.01.06-52.52Z"/><path class="cls-1" d="M543.23,202.08c0,17.32-.1,34.64.08,51.96.04,3.72-1.02,4.86-4.78,4.82-10.81-.1-10.81.07-10.81-10.68,0-32.47.08-64.95-.09-97.42-.02-4.16,1.09-5.39,5.27-5.3,10.33.22,10.34.01,10.34,10.16,0,15.49,0,30.98,0,46.46Z"/><path class="cls-2" d="M388.48,402.59c-5.64,6.12-11.7,9.06-19.13,8.71-8.2-.38-14.28-4.1-18.01-11.42-6.84-13.43-2.11-30.41,9.95-35.98,14.59-6.73,29.77-.25,34.26,15.12,4.07,13.92,3.86,28-1.07,41.73-4.97,13.81-17.84,19.93-31.84,15.61-5.08-1.57-8.82-4.66-10.94-9.5-.69-1.56-2.9-4.19.04-4.89,2.49-.59,6.1-3.37,8.26.96,2.45,4.91,6.47,6.85,11.8,6.73,4.87-.11,8.67-2.04,11.35-6.12,3.97-6.04,4.84-12.84,5.32-20.95ZM358.29,386.81c-.23,2.32.26,4.77,1.04,7.16,2.21,6.7,6.8,9.83,14.02,9.6,7.14-.23,12.41-4.16,13.8-10.78,1.32-6.28.36-12.34-3.36-17.68-3.12-4.5-7.62-6.35-13.04-5.69-5.47.67-9.18,3.78-11.14,8.84-1.03,2.64-1.58,5.44-1.32,8.55Z"/><path class="cls-2" d="M419.56,393.52c6.63-3.83,12.95-4.95,19.55-3.89,12.55,2.01,19.68,11.2,19.22,24.5-.43,12.73-8.74,21.93-21.2,23.06-5.8.53-11.64.57-17.24-1.76-5.37-2.23-9.11-5.93-11.34-11.31-1.23-2.96-1.17-4.62,2.71-4.82,3.5-.18,6-.1,7.92,3.82,3,6.14,11.77,8.22,19.5,5.48,6.76-2.39,10.73-9.75,9.63-17.86-1.51-11.17-12.47-16.79-23.55-11.99-1.66.72-3.11,1.93-4.73,2.77-2.98,1.54-6.42,1.44-9.21.42-2.56-.93-1.04-4.17-.94-6.3.47-9.81,1.29-19.61,1.78-29.42.14-2.79,1.15-3.77,3.91-3.74,11.5.1,23.01.16,34.51-.03,3.51-.06,4.14,1.41,4.15,4.46,0,3.02-.95,4.1-4.04,4.04-8.33-.17-16.67.08-25-.12-3.42-.08-4.77,1.03-4.8,4.5-.06,5.81-.51,11.61-.83,18.19Z"/><path class="cls-2" d="M508.99,387.69c0,6,.29,12.02-.09,18-.32,4.96.85,7.65,6.4,6.64,3-.55,4.03.73,4.06,3.84.04,3.31-1.39,4.2-4.2,3.71-5.26-.92-6.93,1.44-6.2,6.36.22,1.47-.16,3.03.07,4.49.72,4.62-1.11,6.13-5.71,5.76-2.84-.23-3.97-1.04-3.61-3.82.06-.49,0-1,0-1.5q-.06-11.27-11.11-11.27c-6,0-12.01,0-18.01,0-5.82,0-7.7-3.27-4.77-8.56,1.37-2.47,3.18-4.69,4.77-7.03,8.43-12.41,16.98-24.74,25.18-37.3,2.3-3.52,4.83-4.83,8.96-4.62,3.2.16,4.42.96,4.33,4.29-.21,7-.06,14-.06,21.01ZM499.7,374.76c-8.83,13.02-16.88,24.89-25.45,37.52,8.26,0,15.67-.03,23.07.02,2.58.02,2.37-1.74,2.37-3.41,0-10.95,0-21.91,0-34.12Z"/><path class="cls-1" d="M294.82,383.16c-1.68-6.05.11-9.78,5.14-12.43,3.51-1.85,6.73-4.33,9.9-6.75,2.72-2.07,5.74-1.52,8.65-1.32,2.83.2,1.87,2.72,1.87,4.35.06,18.33.01,36.66.05,54.99.01,7.18-.8,6.24,6.45,6.33,2.17.03,4.34.05,6.5,0,2.74-.07,5.07-.44,5.15,3.85.08,4.45-2.23,4.24-5.26,4.22-12.34-.07-24.67-.14-37.01.04-3.38.05-4.16-1.13-4.17-4.3,0-3.21,1.22-4,4.14-3.84,3.66.2,7.34-.05,11,.07,2.41.08,3.65-.5,3.64-3.29-.09-16.33-.06-32.66-.02-48.99,0-3.09-1-3.53-3.45-1.75-4.11,2.97-8.3,5.84-12.59,8.83Z"/></svg>